<?xml version="1.0" encoding="utf-8"?>
<!-- Generator: Adobe Illustrator 14.0.0, SVG Export Plug-In . SVG Version: 6.00 Build 43363)  -->
<!DOCTYPE svg PUBLIC "-//W3C//DTD SVG 1.1//EN" "http://www.w3.org/Graphics/SVG/1.1/DTD/svg11.dtd">
<svg version="1.1" id="Layer_1" xmlns="http://www.w3.org/2000/svg" xmlns:xlink="http://www.w3.org/1999/xlink" x="0px" y="0px"
	 width="479.805px" height="479.81px" viewBox="0 0 479.805 479.81" enable-background="new 0 0 479.805 479.81"
	 xml:space="preserve">
<g>
	<g>
		<polygon points="39.809,448.732 0,448.732 111.91,31.077 151.719,31.077 		"/>
		<polygon points="205.327,448.732 165.519,448.732 277.428,31.077 317.237,31.077 		"/>
		<polygon points="123.615,448.732 83.807,448.732 195.717,31.077 235.525,31.077 		"/>
		<polygon points="101.244,70.885 111.91,31.077 317.239,31.077 306.573,70.885 		"/>
	</g>
	<g>
		<polygon points="367.895,448.732 328.086,448.732 439.997,31.077 479.805,31.077 		"/>
		<polygon points="286.184,448.732 246.375,448.732 358.286,31.077 398.094,31.077 		"/>
		<polygon points="347.62,70.885 358.286,31.077 479.805,31.077 469.139,70.885 		"/>
	</g>
</g>
</svg>
